<svg width="370" height="110" viewBox="0 0 370 110" fill="none" xmlns="http://www.w3.org/2000/svg">
<g clip-path="url(#clip0_1_74)">
<g clip-path="url(#clip1_1_74)">
<g clip-path="url(#clip2_1_74)">
<g clip-path="url(#clip3_1_74)">
<g clip-path="url(#clip4_1_74)">
<g clip-path="url(#clip5_1_74)">
<g clip-path="url(#clip6_1_74)">
<path d="M183.016 71.785V16.7072H193.566L212.473 36.7985L231.38 16.7072H241.93V71.785H231.38V32.1798L212.473 51.4484L193.566 32.1798V71.785H183.016ZM272.41 71.785V26.5075H253.203V16.7072H302.153V26.5075H282.961V71.785H272.41ZM310.21 64.4528L315.839 55.4031C317.72 56.5289 319.633 57.5441 321.578 58.4486C323.514 59.353 325.527 60.118 327.617 60.7435C329.698 61.3593 331.888 61.8308 334.187 62.1579C336.486 62.4947 338.931 62.6631 341.521 62.6631C344.656 62.6631 347.319 62.4466 349.509 62.0136C351.708 61.571 353.503 60.9696 354.893 60.2094C356.274 59.4493 357.283 58.54 357.919 57.4815C358.546 56.4231 358.86 55.2732 358.86 54.0319C358.86 52.0305 358.074 50.4477 356.502 49.2834C354.929 48.1191 352.498 47.5369 349.209 47.5369C347.773 47.5369 346.255 47.638 344.656 47.84C343.057 48.0421 341.443 48.2586 339.817 48.4895C338.181 48.7301 336.573 48.9466 334.991 49.139C333.401 49.3411 331.906 49.4421 330.507 49.4421C328.18 49.4421 325.945 49.1246 323.8 48.4895C321.664 47.8545 319.77 46.9019 318.116 45.6317C316.462 44.3712 315.149 42.7883 314.176 40.8831C313.195 38.9779 312.704 36.7552 312.704 34.2149C312.704 32.7138 312.899 31.2224 313.29 29.7406C313.681 28.2684 314.304 26.8539 315.158 25.4972C316.012 24.15 317.112 22.8943 318.457 21.7301C319.811 20.5658 321.451 19.5602 323.377 18.7135C325.295 17.8667 327.512 17.2028 330.03 16.7217C332.547 16.2406 335.414 16 338.631 16C340.957 16 343.297 16.1347 345.651 16.4041C348.005 16.6736 350.295 17.0585 352.521 17.5588C354.757 18.0495 356.906 18.6413 358.969 19.3341C361.032 20.0269 362.949 20.7967 364.721 21.6434L360.1 30.6643C358.637 29.9811 357.06 29.3509 355.37 28.7735C353.68 28.1962 351.917 27.7007 350.081 27.2869C348.236 26.8635 346.333 26.5267 344.37 26.2766C342.407 26.0264 340.403 25.9013 338.358 25.9013C335.459 25.9013 333.069 26.1274 331.188 26.5797C329.316 27.0223 327.826 27.59 326.717 28.2828C325.608 28.9756 324.836 29.7502 324.4 30.6066C323.973 31.463 323.759 32.3145 323.759 33.1613C323.759 34.8067 324.454 36.1538 325.845 37.2026C327.244 38.2418 329.375 38.7614 332.238 38.7614C333.392 38.7614 334.719 38.6748 336.218 38.5016C337.718 38.3284 339.294 38.136 340.948 37.9243C342.602 37.7126 344.288 37.5202 346.005 37.347C347.723 37.1641 349.391 37.0727 351.008 37.0727C354.071 37.0727 356.783 37.4384 359.146 38.1697C361.509 38.901 363.49 39.9402 365.089 41.2873C366.689 42.6344 367.897 44.2654 368.715 46.1802C369.533 48.095 369.942 50.2408 369.942 52.6175C369.942 55.7832 369.251 58.6073 367.87 61.0899C366.48 63.5724 364.503 65.6652 361.94 67.3684C359.378 69.0715 356.288 70.3609 352.671 71.2365C349.054 72.1218 345.029 72.5644 340.594 72.5644C337.668 72.5644 334.805 72.3671 332.006 71.9726C329.207 71.5877 326.531 71.0393 323.977 70.3272C321.415 69.6056 318.97 68.7444 316.644 67.7437C314.326 66.7526 312.182 65.6556 310.21 64.4528Z" fill="white"/>
</g>
</g>
<g clip-path="url(#clip7_1_74)">
<g clip-path="url(#clip8_1_74)">
<path d="M200.102 103.277H195.687V102.004H197.086V89.7599L192.102 100.245H190.616L185.632 89.7599V102.004H187.424V103.277H183.009V102.004H184.255V88.3481H183.009V87.0751H185.741L191.359 98.9253L196.977 87.0751H199.862V88.3481H198.463V102.004H200.102V103.277ZM204.277 103.369C202.339 103.369 201.312 102.559 201.195 100.939C201.181 100.831 201.173 100.723 201.173 100.615C201.173 99.3188 201.909 98.4547 203.381 98.0227C204.197 97.8066 205.771 97.5598 208.103 97.282V95.4999C208.103 93.818 207.272 92.9771 205.611 92.9771C204.416 92.9925 203.148 93.2857 201.807 93.8566L201.436 92.8614L201.654 92.7688C202.791 92.2442 203.658 91.9278 204.256 91.8198C204.853 91.7118 205.29 91.6532 205.567 91.6439C205.844 91.6378 206.109 91.6424 206.363 91.6578C206.619 91.6733 206.951 91.7427 207.359 91.8661C207.768 91.9896 208.12 92.1624 208.417 92.3846C208.718 92.6098 208.977 92.9462 209.196 93.3937C209.414 93.8412 209.523 94.3735 209.523 94.9907V102.119H211.207V103.277H208.321L208.103 102.397C206.791 103.045 205.516 103.369 204.277 103.369ZM204.671 102.304C205.778 102.304 206.922 102.042 208.103 101.518V98.2078C205.917 98.285 204.503 98.4393 203.862 98.6707C203.367 98.8096 203.017 99.0595 202.813 99.4206C202.609 99.7847 202.507 100.075 202.507 100.291C202.507 100.507 202.507 100.653 202.507 100.731C202.551 101.286 202.776 101.687 203.184 101.934C203.593 102.181 204.088 102.304 204.671 102.304ZM213.742 92.8614H212.278V91.7041H215.163V102.119H216.802V103.277H212.387V102.119H213.742V92.8614ZM214.42 88.6027C214.128 88.6027 213.903 88.5055 213.742 88.3111C213.582 88.1198 213.502 87.8652 213.502 87.5473C213.502 87.2325 213.585 86.9779 213.751 86.7835C213.92 86.5922 214.15 86.4965 214.442 86.4965C214.733 86.4965 214.969 86.5922 215.15 86.7835C215.334 86.9779 215.425 87.2402 215.425 87.5704C215.425 87.9037 215.331 88.1599 215.141 88.3389C214.952 88.5148 214.711 88.6027 214.42 88.6027ZM219.312 87.0751H217.847V85.9179H220.733V102.119H222.372V103.277H217.957V102.119H219.312V87.0751ZM227.793 102.142L228.645 102.096L228.711 103.022C228.696 103.022 228.594 103.045 228.405 103.091C227.968 103.199 227.48 103.253 226.941 103.253C226.445 103.223 225.993 103.133 225.585 102.985C225.177 102.84 224.798 102.531 224.449 102.059C224.099 101.59 223.924 100.985 223.924 100.245V93.0465H222.809L222.984 91.9356L223.946 91.7273L224.121 89.5054L225.345 89.3896V91.7041H227.99V93.0465H225.345V99.8511C225.345 101.379 226.161 102.142 227.793 102.142ZM230.984 98.0921C230.984 99.4653 231.356 100.464 232.099 101.087C232.842 101.713 233.709 102.027 234.7 102.027C235.342 102.027 236 101.96 236.676 101.828C237.355 101.698 237.804 101.579 238.023 101.471L238.307 102.559C237.972 102.79 237.421 102.983 236.655 103.138C235.891 103.292 235.191 103.369 234.556 103.369C233.924 103.369 233.355 103.3 232.851 103.161C232.35 103.022 231.837 102.775 231.312 102.42C230.788 102.065 230.372 101.51 230.066 100.754C229.76 99.9977 229.607 99.0719 229.607 97.9764C229.607 95.9396 230.103 94.3812 231.094 93.3011C232.128 92.1747 233.331 91.6115 234.7 91.6115C236.07 91.6115 237.115 92.0127 237.835 92.8151C238.558 93.6174 238.919 94.7438 238.919 96.1942C238.919 96.5028 238.897 96.8346 238.853 97.1894H231.05C231.006 97.5135 230.984 97.8144 230.984 98.0921ZM237.608 96.0322C237.608 95.0755 237.338 94.338 236.799 93.8196C236.26 93.3042 235.633 93.0465 234.919 93.0465C233.943 93.0465 233.134 93.3582 232.493 93.9816C231.851 94.608 231.422 95.3764 231.203 96.2868H237.608C237.608 96.1942 237.608 96.1093 237.608 96.0322ZM251.422 103.277H247.007V102.119H248.362V95.3147C248.362 93.818 247.575 93.0697 246.001 93.0697C245.171 93.0851 244.238 93.3783 243.203 93.9492V102.119H244.865V103.277H240.449V102.119H241.783V92.8614H240.34V91.7041H243.225V92.8614H243.203V92.9308C244.413 92.1284 245.52 91.6964 246.526 91.6347C247.91 91.6347 248.85 92.0513 249.346 92.8845C250.613 92.113 251.808 91.6964 252.93 91.6347C253.951 91.6347 254.723 91.8584 255.247 92.3059C255.495 92.5065 255.709 92.8182 255.89 93.2409C256.074 93.6668 256.166 94.1729 256.166 94.7592V102.119H257.783V103.277H253.368V102.119H254.745V95.3379C254.745 93.8257 253.965 93.0697 252.406 93.0697C251.561 93.0851 250.664 93.3628 249.717 93.9029C249.761 94.1652 249.783 94.4506 249.783 94.7592V102.119H251.422V103.277ZM260.795 92.8614H259.331V91.7041H262.216V92.5605C263.134 91.8507 264.11 91.4958 265.145 91.4958C266.136 91.4958 267.069 91.8198 267.943 92.4679C268.409 92.8228 268.785 93.3783 269.071 94.1343C269.354 94.8904 269.495 95.8085 269.495 96.8886C269.495 98.9407 269.014 100.484 268.052 101.518C266.959 102.69 265.546 103.277 263.812 103.277C263.302 103.277 262.77 103.238 262.216 103.161V107.905H264.074V109.063H259.44V107.905H260.795V92.8614ZM262.216 93.5094V101.98C262.639 102.088 263.098 102.142 263.593 102.142C265.036 102.142 266.143 101.695 266.916 100.8C267.688 99.9051 268.074 98.6399 268.074 97.0043C268.074 95.1064 267.55 93.8643 266.5 93.278C265.99 92.9848 265.4 92.8382 264.73 92.8382C264.059 92.8382 263.222 93.0619 262.216 93.5094ZM272.599 87.0751H271.134V85.9179H274.02V102.119H275.659V103.277H271.244V102.119H272.599V87.0751ZM279.637 103.369C277.699 103.369 276.672 102.559 276.555 100.939C276.541 100.831 276.533 100.723 276.533 100.615C276.533 99.3188 277.269 98.4547 278.741 98.0227C279.557 97.8066 281.131 97.5598 283.463 97.282V95.4999C283.463 93.818 282.632 92.9771 280.971 92.9771C279.776 92.9925 278.508 93.2857 277.167 93.8566L276.796 92.8614L277.014 92.7688C278.151 92.2442 279.018 91.9278 279.616 91.8198C280.213 91.7118 280.65 91.6532 280.927 91.6439C281.204 91.6378 281.469 91.6424 281.723 91.6578C281.979 91.6733 282.311 91.7427 282.72 91.8661C283.128 91.9896 283.48 92.1624 283.777 92.3846C284.078 92.6098 284.337 92.9462 284.556 93.3937C284.774 93.8412 284.884 94.3735 284.884 94.9907V102.119H286.567V103.277H283.681L283.463 102.397C282.151 103.045 280.876 103.369 279.637 103.369ZM280.031 102.304C281.138 102.304 282.282 102.042 283.463 101.518V98.2078C281.277 98.285 279.863 98.4393 279.222 98.6707C278.727 98.8096 278.377 99.0595 278.173 99.4206C277.969 99.7847 277.867 100.075 277.867 100.291C277.867 100.507 277.867 100.653 277.867 100.731C277.911 101.286 278.136 101.687 278.544 101.934C278.953 102.181 279.448 102.304 280.031 102.304ZM291.55 102.142L292.403 102.096L292.468 103.022C292.454 103.022 292.352 103.045 292.162 103.091C291.725 103.199 291.237 103.253 290.698 103.253C290.202 103.223 289.751 103.133 289.343 102.985C288.935 102.84 288.556 102.531 288.206 102.059C287.856 101.59 287.681 100.985 287.681 100.245V93.0465H286.567L286.741 91.9356L287.703 91.7273L287.878 89.5054L289.102 89.3896V91.7041H291.747V93.0465H289.102V99.8511C289.102 101.379 289.918 102.142 291.55 102.142ZM294.737 98.0921C294.737 99.4653 295.109 100.464 295.852 101.087C296.595 101.713 297.462 102.027 298.453 102.027C299.095 102.027 299.755 101.96 300.434 101.828C301.11 101.698 301.557 101.579 301.776 101.471L302.06 102.559C301.725 102.79 301.176 102.983 300.412 103.138C299.645 103.292 298.946 103.369 298.313 103.369C297.678 103.369 297.11 103.3 296.609 103.161C296.104 103.022 295.59 102.775 295.065 102.42C294.541 102.065 294.125 101.51 293.819 100.754C293.513 99.9977 293.36 99.0719 293.36 97.9764C293.36 95.9396 293.856 94.3812 294.847 93.3011C295.881 92.1747 297.084 91.6115 298.453 91.6115C299.823 91.6115 300.869 92.0127 301.592 92.8151C302.312 93.6174 302.672 94.7438 302.672 96.1942C302.672 96.5028 302.65 96.8346 302.607 97.1894H294.803C294.759 97.5135 294.737 97.8144 294.737 98.0921ZM301.361 96.0322C301.361 95.0755 301.091 94.338 300.552 93.8196C300.013 93.3042 299.386 93.0465 298.672 93.0465C297.696 93.0465 296.887 93.3582 296.246 93.9816C295.604 94.608 295.175 95.3764 294.956 96.2868H301.361C301.361 96.1942 301.361 96.1093 301.361 96.0322ZM305.361 99.5502L305.47 101.772C306.082 101.973 306.575 102.073 306.948 102.073C307.318 102.073 307.561 102.065 307.678 102.05C308.436 102.034 309.069 101.865 309.579 101.541C310.09 101.217 310.345 100.761 310.345 100.175C310.345 99.5888 310.145 99.1336 309.746 98.8096C309.343 98.4856 308.858 98.2387 308.29 98.0689C307.721 97.8992 307.153 97.7141 306.585 97.5135C306.016 97.3129 305.533 96.9966 305.133 96.5645C304.731 96.1325 304.53 95.5693 304.53 94.875C304.53 93.8874 304.887 93.0959 305.601 92.5003C306.315 91.9078 307.219 91.6115 308.312 91.6115C309.128 91.6115 309.951 91.7658 310.782 92.0744L311.175 92.2364V94.8981L310.104 95.0601L310.017 93.0928C309.434 93.0002 308.946 92.9539 308.552 92.9539C307.751 92.9539 307.117 93.119 306.65 93.4492C306.184 93.7825 305.951 94.2068 305.951 94.7222C305.951 95.2406 306.152 95.6465 306.554 95.9396C306.954 96.2328 307.437 96.4642 308.006 96.634C308.574 96.8037 309.142 96.9919 309.711 97.1987C310.279 97.4085 310.764 97.748 311.166 98.2171C311.566 98.6892 311.765 99.3033 311.765 100.059C311.765 101.078 311.405 101.883 310.686 102.476C309.963 103.071 308.938 103.369 307.612 103.369C306.286 103.369 305.186 103.037 304.312 102.374V99.7122L305.361 99.5502ZM322.52 92.8614H321.318V91.7041H325.34V92.8614H324.028L319.678 103.277L318.957 107.882H320.793V109.04H316.181V107.882H317.536L318.214 103.277H317.842L314.301 92.8614H312.815V91.7041H317.427V92.8614H315.918L318.804 102.189L322.52 92.8614ZM327.307 99.5502L327.416 101.772C328.028 101.973 328.519 102.073 328.889 102.073C329.262 102.073 329.507 102.065 329.624 102.05C330.382 102.034 331.016 101.865 331.526 101.541C332.036 101.217 332.291 100.761 332.291 100.175C332.291 99.5888 332.09 99.1336 331.687 98.8096C331.288 98.4856 330.804 98.2387 330.236 98.0689C329.668 97.8992 329.099 97.7141 328.531 97.5135C327.963 97.3129 327.477 96.9966 327.075 96.5645C326.676 96.1325 326.476 95.5693 326.476 94.875C326.476 93.8874 326.833 93.0959 327.547 92.5003C328.261 91.9078 329.165 91.6115 330.258 91.6115C331.074 91.6115 331.897 91.7658 332.728 92.0744L333.121 92.2364V94.8981L332.05 95.0601L331.963 93.0928C331.38 93.0002 330.892 92.9539 330.498 92.9539C329.697 92.9539 329.063 93.119 328.597 93.4492C328.13 93.7825 327.897 94.2068 327.897 94.7222C327.897 95.2406 328.097 95.6465 328.496 95.9396C328.898 96.2328 329.383 96.4642 329.952 96.634C330.52 96.8037 331.088 96.9919 331.657 97.1987C332.225 97.4085 332.709 97.748 333.108 98.2171C333.51 98.6892 333.711 99.3033 333.711 100.059C333.711 101.078 333.35 101.883 332.627 102.476C331.907 103.071 330.884 103.369 329.558 103.369C328.232 103.369 327.132 103.037 326.258 102.374V99.7122L327.307 99.5502ZM339.959 102.142L340.811 102.096L340.877 103.022C340.862 103.022 340.76 103.045 340.571 103.091C340.134 103.199 339.645 103.253 339.106 103.253C338.611 103.223 338.159 103.133 337.751 102.985C337.343 102.84 336.964 102.531 336.614 102.059C336.265 101.59 336.09 100.985 336.09 100.245V93.0465H334.975L335.15 91.9356L336.112 91.7273L336.286 89.5054L337.51 89.3896V91.7041H340.155V93.0465H337.51V99.8511C337.51 101.379 338.327 102.142 339.959 102.142ZM343.15 98.0921C343.15 99.4653 343.522 100.464 344.265 101.087C345.008 101.713 345.875 102.027 346.866 102.027C347.507 102.027 348.167 101.96 348.846 101.828C349.523 101.698 349.97 101.579 350.189 101.471L350.473 102.559C350.138 102.79 349.588 102.983 348.825 103.138C348.058 103.292 347.359 103.369 346.726 103.369C346.091 103.369 345.522 103.3 345.021 103.161C344.517 103.022 344.003 102.775 343.478 102.42C342.953 102.065 342.538 101.51 342.232 100.754C341.926 99.9977 341.773 99.0719 341.773 97.9764C341.773 95.9396 342.268 94.3812 343.259 93.3011C344.294 92.1747 345.496 91.6115 346.866 91.6115C348.236 91.6115 349.282 92.0127 350.005 92.8151C350.725 93.6174 351.085 94.7438 351.085 96.1942C351.085 96.5028 351.063 96.8346 351.019 97.1894H343.216C343.172 97.5135 343.15 97.8144 343.15 98.0921ZM349.773 96.0322C349.773 95.0755 349.504 94.338 348.964 93.8196C348.425 93.3042 347.799 93.0465 347.085 93.0465C346.108 93.0465 345.299 93.3582 344.658 93.9816C344.017 94.608 343.587 95.3764 343.369 96.2868H349.773C349.773 96.1942 349.773 96.1093 349.773 96.0322ZM363.588 103.277H359.172V102.119H360.528V95.3147C360.528 93.818 359.741 93.0697 358.167 93.0697C357.336 93.0851 356.404 93.3783 355.369 93.9492V102.119H357.03V103.277H352.615V102.119H353.948V92.8614H352.506V91.7041H355.391V92.8614H355.369V92.9308C356.579 92.1284 357.686 91.6964 358.692 91.6347C360.076 91.6347 361.016 92.0513 361.511 92.8845C362.779 92.113 363.974 91.6964 365.096 91.6347C366.116 91.6347 366.889 91.8584 367.413 92.3059C367.661 92.5065 367.875 92.8182 368.056 93.2409C368.239 93.6668 368.331 94.1729 368.331 94.7592V102.119H369.949V103.277H365.533V102.119H366.91V95.3379C366.91 93.8257 366.131 93.0697 364.572 93.0697C363.726 93.0851 362.83 93.3628 361.883 93.9029C361.927 94.1652 361.948 94.4506 361.948 94.7592V102.119H363.588V103.277Z" fill="white"/>
</g>
</g>
</g>
</g>
</g>
</g>
</g>
<g clip-path="url(#clip9_1_74)">
<g clip-path="url(#clip10_1_74)">
<path d="M38.3598 34.6968C38.3598 38.2643 35.4602 41.1711 31.8799 41.1711H16.7709C13.1963 41.1711 10.291 38.2643 10.291 34.6968C10.291 31.1222 13.1977 28.2169 16.7709 28.2169H31.8799C35.4602 28.2169 38.3598 31.1222 38.3598 34.6968Z" fill="white"/>
<path d="M54.9313 57.3225C54.9313 60.8914 52.0317 63.7967 48.4514 63.7967H33.3425C29.7692 63.7967 26.8625 60.8914 26.8625 57.3225C26.8625 53.7478 29.7692 50.8425 33.3425 50.8425H48.4514C52.0317 50.844 54.9313 53.7492 54.9313 57.3225Z" fill="white"/>
<path d="M70.4646 79.951C70.4646 83.5185 67.565 86.4252 63.9847 86.4252H48.8758C45.3026 86.4252 42.3958 83.5185 42.3958 79.951C42.3958 76.3763 45.3026 73.4696 48.8758 73.4696H63.9847C67.565 73.4696 70.4646 76.3763 70.4646 79.951Z" fill="white"/>
<path d="M115.841 0.0299072H21.7398C21.6857 0.0299072 21.643 0 21.5889 0H6.47993C2.90671 0 0 2.90671 0 6.47993C0 10.0475 2.90671 12.9542 6.47993 12.9542H21.1588H21.5889H32.3897L65.5271 46.5273C74.156 55.2717 88.2752 55.3614 97.0181 46.7338L124.688 19.4284C124.986 20.3384 125.187 21.2912 125.187 22.2981V87.358C125.187 92.5092 120.994 96.7034 115.841 96.7034H76.7096C76.607 96.6962 76.5202 96.6421 76.4119 96.6421H61.303C57.7284 96.6421 54.8231 99.5488 54.8231 103.123C54.8231 106.691 57.7298 109.598 61.303 109.598H65.0414V109.628H115.841C128.123 109.628 138.111 99.64 138.111 87.3594V22.2981C138.109 10.0175 128.123 0.0299072 115.841 0.0299072ZM87.9419 37.5352C84.2761 41.1568 78.3417 41.1155 74.7257 37.4497L50.5449 12.9542H112.843L87.9419 37.5352Z" fill="white"/>
</g>
</g>
<path d="M164.44 4.18475C164.44 1.87358 162.774 0 160.72 0C158.666 0 157 1.87358 157 4.18475V105.115C157 107.426 158.666 109.3 160.72 109.3C162.774 109.3 164.44 107.426 164.44 105.115V4.18475Z" fill="#35185A"/>
<defs>
<clipPath id="clip0_1_74">
<rect width="186.957" height="93.0627" fill="white" transform="translate(183 16)"/>
</clipPath>
<clipPath id="clip1_1_74">
<rect width="186.957" height="93.0627" fill="white" transform="translate(183 16)"/>
</clipPath>
<clipPath id="clip2_1_74">
<rect width="186.957" height="93.0627" fill="white" transform="translate(183 16)"/>
</clipPath>
<clipPath id="clip3_1_74">
<rect width="186.957" height="93.0627" fill="white" transform="translate(183 16)"/>
</clipPath>
<clipPath id="clip4_1_74">
<rect width="186.957" height="93.0627" fill="white" transform="translate(183 16)"/>
</clipPath>
<clipPath id="clip5_1_74">
<rect width="186.957" height="56.5644" fill="white" transform="translate(183 16)"/>
</clipPath>
<clipPath id="clip6_1_74">
<rect width="186.957" height="56.5644" fill="white" transform="translate(183 16)"/>
</clipPath>
<clipPath id="clip7_1_74">
<rect width="186.957" height="23.1448" fill="white" transform="translate(183 85.9179)"/>
</clipPath>
<clipPath id="clip8_1_74">
<rect width="186.957" height="23.1448" fill="white" transform="translate(183 85.9179)"/>
</clipPath>
<clipPath id="clip9_1_74">
<rect width="138.111" height="109.628" fill="white"/>
</clipPath>
<clipPath id="clip10_1_74">
<rect width="138.111" height="109.628" fill="white"/>
</clipPath>
</defs>
</svg>
