<svg width="139" height="110" viewBox="0 0 139 110" fill="none" xmlns="http://www.w3.org/2000/svg">
<g clip-path="url(#clip0_2_75)">
<g clip-path="url(#clip1_2_75)">
<path d="M38.3598 34.6968C38.3598 38.2643 35.4602 41.1711 31.8799 41.1711H16.7709C13.1963 41.1711 10.291 38.2643 10.291 34.6968C10.291 31.1222 13.1977 28.2169 16.7709 28.2169H31.8799C35.4602 28.2169 38.3598 31.1222 38.3598 34.6968Z" fill="#755BB4"/>
<path d="M54.9313 57.3225C54.9313 60.8914 52.0317 63.7967 48.4514 63.7967H33.3425C29.7692 63.7967 26.8625 60.8914 26.8625 57.3225C26.8625 53.7478 29.7692 50.8425 33.3425 50.8425H48.4514C52.0317 50.844 54.9313 53.7492 54.9313 57.3225Z" fill="#755BB4"/>
<path d="M70.4646 79.951C70.4646 83.5185 67.565 86.4252 63.9847 86.4252H48.8758C45.3026 86.4252 42.3958 83.5185 42.3958 79.951C42.3958 76.3763 45.3026 73.4696 48.8758 73.4696H63.9847C67.565 73.4696 70.4646 76.3763 70.4646 79.951Z" fill="#755BB4"/>
<path d="M115.841 0.0299072H21.7398C21.6857 0.0299072 21.643 0 21.5889 0H6.47993C2.90671 0 0 2.90671 0 6.47993C0 10.0475 2.90671 12.9542 6.47993 12.9542H21.1588H21.5889H32.3897L65.5271 46.5273C74.156 55.2717 88.2752 55.3614 97.0181 46.7338L124.688 19.4284C124.986 20.3384 125.187 21.2912 125.187 22.2981V87.358C125.187 92.5092 120.994 96.7034 115.841 96.7034H76.7096C76.607 96.6962 76.5202 96.6421 76.4119 96.6421H61.303C57.7284 96.6421 54.8231 99.5488 54.8231 103.123C54.8231 106.691 57.7298 109.598 61.303 109.598H65.0414V109.628H115.841C128.123 109.628 138.111 99.64 138.111 87.3594V22.2981C138.109 10.0175 128.123 0.0299072 115.841 0.0299072ZM87.9419 37.5352C84.2761 41.1568 78.3417 41.1155 74.7257 37.4497L50.5449 12.9542H112.843L87.9419 37.5352Z" fill="#755BB4"/>
</g>
</g>
<defs>
<clipPath id="clip0_2_75">
<rect width="138.111" height="109.628" fill="white"/>
</clipPath>
<clipPath id="clip1_2_75">
<rect width="138.111" height="109.628" fill="white"/>
</clipPath>
</defs>
</svg>
